<?xml version="1.0" encoding="UTF-8" standalone="no"?>
<!-- Created with Inkscape (http://www.inkscape.org/) -->

<svg
   version="1.1"
   id="svg4979"
   width="2264.3413"
   height="520"
   viewBox="0 0 2264.3413 520"
   sodipodi:docname="MALIEV_WHITE.svg"
   inkscape:version="1.2.2 (732a01da63, 2022-12-09)"
   xmlns:inkscape="http://www.inkscape.org/namespaces/inkscape"
   xmlns:sodipodi="http://sodipodi.sourceforge.net/DTD/sodipodi-0.dtd"
   xmlns="http://www.w3.org/2000/svg"
   xmlns:svg="http://www.w3.org/2000/svg">
  <defs
     id="defs4983" />
  <sodipodi:namedview
     id="namedview4981"
     pagecolor="#ffffff"
     bordercolor="#000000"
     borderopacity="0.25"
     inkscape:showpageshadow="2"
     inkscape:pageopacity="0"
     inkscape:pagecheckerboard="true"
     inkscape:deskcolor="#d1d1d1"
     showgrid="false"
     inkscape:zoom="0.16388889"
     inkscape:cx="957.9661"
     inkscape:cy="286.77966"
     inkscape:window-width="1920"
     inkscape:window-height="1129"
     inkscape:window-x="-8"
     inkscape:window-y="-8"
     inkscape:window-maximized="1"
     inkscape:current-layer="g4989">
    <inkscape:page
       x="0"
       y="0"
       id="page4985"
       width="2264.3413"
       height="520" />
  </sodipodi:namedview>
  <g
     id="g4987"
     inkscape:groupmode="layer"
     inkscape:label="Page 1"
     transform="matrix(1.3333333,0,0,-1.3333333,-188.97626,1009.3333)">
    <g
       id="g4989"
       transform="translate(1746.4082,757)">
      <path
         d="M 0,0 -97.769,-268.618 -195.538,0 h -93.709 -218.429 v -390 h 310.372 l -28.718,79 h -193.654 v 78 l 165.297,0.002 -26.537,72.998 h -138.76 v 82 l 158.82,-0.002 113.557,-311.998 98.931,10e-4 L 93.58,0 Z m -617.676,-390 h 88 V 0 h -88 z m -478.15,156.998 43.65,113.85 43.649,-113.847 z M -773.676,0 h -94 V -344 L -1006.493,0 h -91.366 l -138.817,-344 V 0 h -92 l -92,-159.542 -92,159.542 h -92 v -390 h 92 v 195 l 64.4,-116 h 55.2 l 64.4,116 v -195 h 92 80.656 l 30.29,79 h 147.108 l 30.289,-79 h 307.657 v 79 h -133 z"
         style="fill:#f2f2f2;fill-opacity:1;fill-rule:nonzero;stroke:none"
         id="path4991" />
    </g>
  </g>
</svg>
